HIERARCHY
ROOT Hips
{
	OFFSET 0.000000 0.000000 0.000000
	CHANNELS 6 Xposition Yposition Zposition Xrotation Yrotation Zrotation
	JOINT LeftUpLeg_virtual
	{
		OFFSET 0.000000 0.000000 0.000000
		CHANNELS 3 Xrotation Yrotation Zrotation
		JOINT LeftUpLeg
		{
			OFFSET 15.427100 -6.655098 0.678600
			CHANNELS 3 Xrotation Yrotation Zrotation
			JOINT LeftLeg
			{
				OFFSET 4.081073 -39.591068 13.024000
				CHANNELS 3 Xrotation Yrotation Zrotation
				JOINT LeftFoot
				{
					OFFSET -4.081074 -37.707932 -15.979700
					CHANNELS 3 Xrotation Yrotation Zrotation
					JOINT LeftToeBase
					{
						OFFSET 5.346399 -15.068900 20.645000
						CHANNELS 3 Xrotation Yrotation Zrotation
						JOINT LeftToe_End
						{
							OFFSET 2.754700 0.931300 11.300900
							CHANNELS 3 Xrotation Yrotation Zrotation
							End Site
							{
								OFFSET 0 0 0
							}
						}
					}
				}
			}
		}
	}
	JOINT RightUpLeg_virtual
	{
		OFFSET 0.000000 0.000000 0.000000
		CHANNELS 3 Xrotation Yrotation Zrotation
		JOINT RightUpLeg
		{
			OFFSET -15.569500 -6.655098 0.678600
			CHANNELS 3 Xrotation Yrotation Zrotation
			JOINT RightLeg
			{
				OFFSET -4.081825 -39.591045 13.023800
				CHANNELS 3 Xrotation Yrotation Zrotation
				JOINT RightFoot
				{
					OFFSET 4.081824 -37.707954 -15.979600
					CHANNELS 3 Xrotation Yrotation Zrotation
					JOINT RightToeBase
					{
						OFFSET -5.346400 -15.068900 20.645000
						CHANNELS 3 Xrotation Yrotation Zrotation
						JOINT RightToe_End
						{
							OFFSET -2.754700 0.931300 11.300900
							CHANNELS 3 Xrotation Yrotation Zrotation
							End Site
							{
								OFFSET 0 0 0
							}
						}
					}
				}
			}
		}
	}
	JOINT Spine_virtual
	{
		OFFSET 0.000000 0.000000 0.000000
		CHANNELS 3 Xrotation Yrotation Zrotation
		JOINT Spine
		{
			OFFSET -0.279200 12.230698 -2.892100
			CHANNELS 3 Xrotation Yrotation Zrotation
			JOINT Spine1
			{
				OFFSET -0.232667 10.192268 -1.242267
				CHANNELS 3 Xrotation Yrotation Zrotation
				JOINT Spine1_split
				{
					OFFSET -0.232667 10.192268 -1.242267
					CHANNELS 3 Xrotation Yrotation Zrotation
					JOINT Spine2
					{
						OFFSET -0.232667 10.192268 -1.242267
						CHANNELS 3 Xrotation Yrotation Zrotation
						JOINT Neck_virtual
						{
							OFFSET 0.000000 0.000000 0.000000
							CHANNELS 3 Xrotation Yrotation Zrotation
							JOINT Neck
							{
								OFFSET -0.418800 17.814194 8.416900
								CHANNELS 3 Xrotation Yrotation Zrotation
								JOINT Head
								{
									OFFSET 0.000000 7.031097 3.806800
									CHANNELS 3 Xrotation Yrotation Zrotation
									JOINT HeadTop_End
									{
										OFFSET 0.000000 24.646606 12.978600
										CHANNELS 3 Xrotation Yrotation Zrotation
										End Site
										{
											OFFSET 0 0 0
										}
									}
								}
							}
						}
						JOINT LeftShoulder_virtual
						{
							OFFSET 0.000000 0.000000 0.000000
							CHANNELS 3 Xrotation Yrotation Zrotation
							JOINT LeftShoulder
							{
								OFFSET 8.476499 7.247704 -3.868750
								CHANNELS 3 Xrotation Yrotation Zrotation
								JOINT LeftShoulder_split
								{
									OFFSET 8.476499 7.247704 -3.868750
									CHANNELS 3 Xrotation Yrotation Zrotation
									JOINT LeftArm
									{
										OFFSET 9.308998 -2.777710 0.208600
										CHANNELS 3 Xrotation Yrotation Zrotation
										JOINT LeftForeArm
										{
											OFFSET 29.972298 0.000000 0.000000
											CHANNELS 3 Xrotation Yrotation Zrotation
											JOINT LeftHand
											{
												OFFSET 26.026505 0.000000 0.000000
												CHANNELS 3 Xrotation Yrotation Zrotation
												End Site
												{
													OFFSET 0 0 0
												}
											}
										}
									}
								}
							}
						}
						JOINT RightShoulder_virtual
						{
							OFFSET 0.000000 0.000000 0.000000
							CHANNELS 3 Xrotation Yrotation Zrotation
							JOINT RightShoulder
							{
								OFFSET -7.570500 7.247704 -3.868750
								CHANNELS 3 Xrotation Yrotation Zrotation
								JOINT RightShoulder_split
								{
									OFFSET -7.570500 7.247704 -3.868750
									CHANNELS 3 Xrotation Yrotation Zrotation
									JOINT RightArm
									{
										OFFSET -9.308998 -2.777710 0.208500
										CHANNELS 3 Xrotation Yrotation Zrotation
										JOINT RightForeArm
										{
											OFFSET -29.972300 0.000000 0.000000
											CHANNELS 3 Xrotation Yrotation Zrotation
											JOINT RightHand
											{
												OFFSET -26.026505 0.000000 0.000000
												CHANNELS 3 Xrotation Yrotation Zrotation
												End Site
												{
													OFFSET 0 0 0
												}
											}
										}
									}
								}
							}
						}
					}
				}
			}
		}
	}
}
MOTION
Frames: 6
Frame Time: 0.03333333
-0.318636 93.529671 1.512474 0.000000 0.000000 0.000000 -1.389754 7.385997 -2.565975 -1.462929 12.010692 15.441915 9.978266 -4.328173 -2.575878 -9.103708 0.641731 -6.842154 2.413905 0.141752 -2.575925 0.000000 0.000000 0.000000 -1.347252 8.036505 -2.581570 -1.689523 -3.739736 0.574999 9.853622 5.257267 1.973403 -2.476521 -0.330752 0.578720 0.006752 0.876293 0.706117 0.000000 0.000000 0.000000 -0.951860 10.730453 -2.975160 9.458618 -0.285801 1.626676 3.122678 0.155607 -0.482133 0.309226 -2.171258 1.113781 0.000000 0.000000 0.000000 -4.303181 -0.053562 0.099281 0.095632 0.287224 0.422167 5.970167 -4.135907 -1.140972 0.000000 0.000000 0.000000 -4.657208 -0.490264 0.191134 0.554887 -3.882314 -8.212424 -0.573176 -1.771653 0.716708 4.669700 1.554267 -72.113465 3.482804 -11.779290 1.338016 0.000000 0.000000 0.000000 -5.452708 -0.813780 0.154664 0.736818 8.186584 5.732374 -2.894544 -1.052928 -0.542600 3.528137 12.908827 76.913722 16.755876 19.274545 -4.902694 0.000000 0.000000 0.000000 
0.017043 93.555420 1.236523 0.000000 0.000000 0.000000 -1.236428 7.529729 -2.500707 -1.281889 11.920254 15.102142 9.921761 -4.187964 -2.596445 -9.457806 0.707844 -6.928251 2.396639 0.115730 -2.488498 0.000000 0.000000 0.000000 -1.162938 8.006882 -2.570727 -1.890685 -3.980484 0.192424 9.569293 5.315231 1.957864 -2.529025 -0.107235 0.303515 0.109949 0.862039 0.606250 0.000000 0.000000 0.000000 -0.753550 10.257718 -2.926122 9.291284 -0.247856 1.632809 3.086391 0.181506 -0.498740 0.253574 -2.304284 0.930718 0.000000 0.000000 0.000000 -4.192643 -0.015439 0.087480 0.145717 0.368200 0.410807 5.980177 -4.302973 -0.939884 0.000000 0.000000 0.000000 -4.655100 -0.468156 0.139234 0.596607 -3.815984 -8.115764 -0.641839 -1.631478 0.775859 4.549671 1.416603 -72.128560 3.438372 -11.870819 1.311398 0.000000 0.000000 0.000000 -5.483207 -0.777265 0.181047 0.720690 7.874166 5.586308 -2.942793 -1.031201 -0.523984 3.431043 13.297193 76.815354 16.820188 19.689535 -5.067377 0.000000 0.000000 0.000000 
0.501176 93.473053 1.249340 0.000000 0.000000 0.000000 -1.197718 7.749271 -2.468620 -1.109831 11.640959 14.721347 10.059459 -4.052799 -2.703321 -9.946921 0.797068 -7.041536 2.369395 0.094339 -2.344347 0.000000 0.000000 0.000000 -0.973917 8.051967 -2.623659 -1.501596 -4.006124 -0.368409 9.050539 5.472098 1.885398 -3.110818 0.401601 0.185842 -0.055662 0.820510 0.404769 0.000000 0.000000 0.000000 -0.633743 9.760889 -2.814347 9.071234 -0.136549 1.637088 3.098489 0.251474 -0.528551 0.260373 -2.294921 0.801463 0.000000 0.000000 0.000000 -4.045435 0.053492 0.073244 0.045354 0.467651 0.291219 5.852059 -4.458353 -0.671796 0.000000 0.000000 0.000000 -4.590842 -0.413606 0.085850 0.649550 -3.749270 -7.908711 -0.765829 -1.661853 0.832571 4.398613 1.118049 -72.068536 3.470501 -11.948473 1.236150 0.000000 0.000000 0.000000 -5.407495 -0.700912 0.193581 0.734652 7.589150 5.380737 -2.935986 -1.192081 -0.510161 3.421822 13.806503 76.653171 16.959394 20.419528 -5.643325 0.000000 0.000000 0.000000 
1.074379 93.286125 1.628452 0.000000 0.000000 0.000000 -1.267437 7.988347 -2.463640 -0.923947 11.255079 14.328279 10.254872 -3.835051 -2.882368 -10.503141 0.920783 -7.051843 2.357330 0.076239 -2.180607 0.000000 0.000000 0.000000 -0.805022 8.131791 -2.696627 -0.575556 -3.985623 -1.102512 8.471971 5.645226 1.872242 -4.210775 1.063398 0.010029 -0.129424 0.784349 0.160471 0.000000 0.000000 0.000000 -0.675458 9.341279 -2.674891 8.835115 0.000072 1.653244 3.157922 0.342650 -0.546967 0.320316 -2.159155 0.765365 0.000000 0.000000 0.000000 -3.901872 0.123137 0.080550 -0.150932 0.569389 0.080437 5.627231 -4.617798 -0.356368 0.000000 0.000000 0.000000 -4.470217 -0.347156 0.049055 0.711740 -3.681644 -7.649598 -0.955898 -1.750372 0.882559 4.267361 0.679205 -72.032835 3.582705 -11.956275 1.121693 0.000000 0.000000 0.000000 -5.233383 -0.607908 0.204984 0.777992 7.360389 5.149984 -2.930291 -1.432051 -0.557698 3.480242 14.229026 76.490530 17.109296 21.261329 -6.530414 0.000000 0.000000 0.000000 
1.696518 93.080353 2.235126 0.000000 0.000000 0.000000 -1.408703 8.084081 -2.465343 -0.621676 10.779570 13.928858 10.405621 -3.471325 -3.088323 -11.176274 1.110182 -6.814052 2.316868 0.072113 -1.991459 0.000000 0.000000 0.000000 -0.771606 8.068288 -2.745250 0.685423 -4.051079 -2.001902 7.834362 5.836515 2.052542 -5.579294 1.762881 -0.155292 0.052828 0.744464 -0.072321 0.000000 0.000000 0.000000 -0.844649 9.051274 -2.568109 8.614066 0.134703 1.694885 3.241819 0.424404 -0.530032 0.389044 -1.970442 0.747105 0.000000 0.000000 0.000000 -3.786306 0.168466 0.125912 -0.374705 0.688333 -0.157456 5.373237 -4.775018 -0.029526 0.000000 0.000000 0.000000 -4.317465 -0.287789 0.048942 0.774293 -3.621820 -7.405026 -1.155794 -1.906249 0.907158 4.165643 0.150111 -72.085646 3.767194 -11.890889 0.991310 0.000000 0.000000 0.000000 -5.001929 -0.528514 0.231291 0.851978 7.227880 4.940546 -2.866389 -1.559921 -0.592547 3.485581 14.461288 76.408677 17.163072 22.018959 -7.579993 0.000000 0.000000 0.000000 
2.298154 92.943390 2.820282 0.000000 0.000000 0.000000 -1.630156 7.978366 -2.441130 -0.137274 10.223051 13.560109 10.529053 -2.995427 -3.212309 -11.911866 1.360461 -6.293077 2.263067 0.091948 -1.790407 0.000000 0.000000 0.000000 -1.000418 7.864508 -2.779065 1.884501 -4.227382 -2.975741 7.373562 6.024336 2.473212 -6.719843 2.382653 -0.011044 0.294249 0.701833 -0.294753 0.000000 0.000000 0.000000 -1.099309 8.912296 -2.555988 8.466804 0.237948 1.763813 3.312540 0.478218 -0.467724 0.507452 -1.643260 0.704921 0.000000 0.000000 0.000000 -3.704555 0.177625 0.209117 -0.565542 0.831951 -0.353748 5.124353 -4.915419 0.287795 0.000000 0.000000 0.000000 -4.166642 -0.248921 0.093314 0.834708 -3.590899 -7.250751 -1.310045 -2.118262 0.931946 4.058372 -0.381787 -72.252200 4.012904 -11.797548 0.861104 0.000000 0.000000 0.000000 -4.759098 -0.476090 0.279378 0.939835 7.220403 4.778186 -2.748847 -1.578878 -0.587280 3.328018 14.423017 76.448504 17.004082 22.483497 -8.613159 0.000000 0.000000 0.000000 
